<svg viewBox="0 0 960 330" role="img" aria-label="PhotoQuest commits per month, 2022 to 2026" xmlns="http://www.w3.org/2000/svg">
  <defs>
    <linearGradient id="area-fill" x1="0" y1="0" x2="0" y2="1">
      <stop offset="0%" stop-color="#22d3ee" stop-opacity="0.22"></stop>
      <stop offset="100%" stop-color="#22d3ee" stop-opacity="0"></stop>
    </linearGradient>
    <linearGradient id="line-stroke" x1="0" y1="0" x2="1" y2="0">
      <stop offset="0%" stop-color="#22d3ee" stop-opacity="0.35"></stop>
      <stop offset="70%" stop-color="#22d3ee" stop-opacity="1"></stop>
      <stop offset="100%" stop-color="#22d3ee" stop-opacity="1"></stop>
    </linearGradient>
    <filter id="glow" x="-20%" y="-20%" width="140%" height="140%">
      <feGaussianBlur stdDeviation="3" result="blur"></feGaussianBlur>
      <feMerge>
        <feMergeNode in="blur"></feMergeNode>
        <feMergeNode in="SourceGraphic"></feMergeNode>
      </feMerge>
    </filter>
  </defs>

  <line x1="0" y1="82" x2="920" y2="82" stroke="rgba(255,255,255,0.11)" stroke-width="1"></line>
  <line x1="0" y1="144" x2="920" y2="144" stroke="rgba(255,255,255,0.11)" stroke-width="1"></line>
  <line x1="0" y1="206" x2="920" y2="206" stroke="rgba(255,255,255,0.11)" stroke-width="1"></line>

  <path d="M0,268 C1.1,268.0 4.3,268.0 6.4,268 C8.5,267.9 10.7,267.4 12.8,267.4 C14.9,267.3 17.0,267.8 19.1,267.7 C21.2,267.6 23.4,266.9 25.5,266.8 C27.6,266.7 29.8,268.0 31.9,266.8 C34.0,265.3 36.2,257.8 38.3,257.5 C40.4,257.2 42.6,264.0 44.7,265.1 C46.8,266.2 49.0,264.6 51.1,263.9 C53.2,263.2 55.3,260.7 57.4,261 C59.5,261.3 61.7,265.2 63.8,265.7 C65.9,266.2 68.1,264.4 70.2,264.2 C72.3,263.9 74.5,264.8 76.6,264.2 C78.7,263.6 80.9,260.3 83,260.4 C85.1,260.4 87.3,263.2 89.4,264.5 C91.5,265.8 93.6,268.0 95.7,268 C97.8,267.7 100.0,266.8 102.1,262.5 C104.2,258.2 106.4,242.1 108.5,242 C110.6,241.9 112.8,259.1 114.9,261.9 C117.0,264.7 119.2,258.9 121.3,258.7 C123.4,258.5 125.6,259.3 127.7,260.7 C129.8,262.1 131.9,267.6 134,267.4 C136.1,267.1 138.3,259.7 140.4,259.2 C142.5,258.7 144.7,263.9 146.8,264.5 C148.9,265.1 151.1,263.7 153.2,263 C155.3,262.3 157.5,259.8 159.6,260.4 C161.7,261.0 163.9,265.8 166,266.8 C168.1,267.8 170.2,266.4 172.3,266.2 C174.4,266.0 176.6,267.9 178.7,265.4 C180.8,262.9 183.0,252.1 185.1,251.1 C187.2,250.1 189.4,259.4 191.5,259.5 C193.6,259.6 195.8,250.8 197.9,251.4 C200.0,252.0 202.2,261.7 204.3,263.3 C206.4,264.9 208.5,261.1 210.6,261 C212.7,260.9 214.9,264.2 217,262.7 C219.1,261.2 221.3,255.0 223.4,252.2 C225.5,249.4 227.7,246.2 229.8,245.8 C231.9,245.4 234.1,248.1 236.2,249.6 C238.3,251.1 240.5,252.8 242.6,254.6 C244.7,256.4 246.8,259.6 248.9,260.4 C251.0,261.2 253.2,260.2 255.3,259.5 C257.4,258.8 259.6,258.4 261.7,256 C263.8,253.6 266.0,243.6 268.1,245.2 C270.2,246.8 272.4,263.1 274.5,265.4 C276.6,267.7 278.8,260.7 280.9,259.2 C283.0,257.7 285.1,260.2 287.2,256.6 C289.3,253.0 291.5,263.9 293.6,237.4 C295.7,210.8 281.7,106.6 300,97.3 C318.3,88.0 368.9,194.5 403.3,181.6 C437.8,168.7 472.3,26.2 506.7,20 C541.1,20.0 575.6,121.9 610,144.6 C644.4,167.3 678.8,169.0 713.3,156 C747.8,143.0 782.3,69.8 816.7,66.4 C851.2,63.0 902.8,124.2 920,135.8 L920,268 L0,268 Z" fill="url(#area-fill)"></path>
  <path d="M0,268 C1.1,268.0 4.3,268.0 6.4,268 C8.5,267.9 10.7,267.4 12.8,267.4 C14.9,267.3 17.0,267.8 19.1,267.7 C21.2,267.6 23.4,266.9 25.5,266.8 C27.6,266.7 29.8,268.0 31.9,266.8 C34.0,265.3 36.2,257.8 38.3,257.5 C40.4,257.2 42.6,264.0 44.7,265.1 C46.8,266.2 49.0,264.6 51.1,263.9 C53.2,263.2 55.3,260.7 57.4,261 C59.5,261.3 61.7,265.2 63.8,265.7 C65.9,266.2 68.1,264.4 70.2,264.2 C72.3,263.9 74.5,264.8 76.6,264.2 C78.7,263.6 80.9,260.3 83,260.4 C85.1,260.4 87.3,263.2 89.4,264.5 C91.5,265.8 93.6,268.0 95.7,268 C97.8,267.7 100.0,266.8 102.1,262.5 C104.2,258.2 106.4,242.1 108.5,242 C110.6,241.9 112.8,259.1 114.9,261.9 C117.0,264.7 119.2,258.9 121.3,258.7 C123.4,258.5 125.6,259.3 127.7,260.7 C129.8,262.1 131.9,267.6 134,267.4 C136.1,267.1 138.3,259.7 140.4,259.2 C142.5,258.7 144.7,263.9 146.8,264.5 C148.9,265.1 151.1,263.7 153.2,263 C155.3,262.3 157.5,259.8 159.6,260.4 C161.7,261.0 163.9,265.8 166,266.8 C168.1,267.8 170.2,266.4 172.3,266.2 C174.4,266.0 176.6,267.9 178.7,265.4 C180.8,262.9 183.0,252.1 185.1,251.1 C187.2,250.1 189.4,259.4 191.5,259.5 C193.6,259.6 195.8,250.8 197.9,251.4 C200.0,252.0 202.2,261.7 204.3,263.3 C206.4,264.9 208.5,261.1 210.6,261 C212.7,260.9 214.9,264.2 217,262.7 C219.1,261.2 221.3,255.0 223.4,252.2 C225.5,249.4 227.7,246.2 229.8,245.8 C231.9,245.4 234.1,248.1 236.2,249.6 C238.3,251.1 240.5,252.8 242.6,254.6 C244.7,256.4 246.8,259.6 248.9,260.4 C251.0,261.2 253.2,260.2 255.3,259.5 C257.4,258.8 259.6,258.4 261.7,256 C263.8,253.6 266.0,243.6 268.1,245.2 C270.2,246.8 272.4,263.1 274.5,265.4 C276.6,267.7 278.8,260.7 280.9,259.2 C283.0,257.7 285.1,260.2 287.2,256.6 C289.3,253.0 291.5,263.9 293.6,237.4 C295.7,210.8 281.7,106.6 300,97.3 C318.3,88.0 368.9,194.5 403.3,181.6 C437.8,168.7 472.3,26.2 506.7,20 C541.1,20.0 575.6,121.9 610,144.6 C644.4,167.3 678.8,169.0 713.3,156 C747.8,143.0 782.3,69.8 816.7,66.4 C851.2,63.0 902.8,124.2 920,135.8" fill="none" stroke="url(#line-stroke)" stroke-width="2.5" stroke-linecap="round" stroke-linejoin="round" filter="url(#glow)"></path>

  <line x1="300" y1="12" x2="300" y2="268" stroke="#f472b6" stroke-width="1.5" stroke-dasharray="5,4" opacity="0.7"></line>
  <text x="300" y="12" text-anchor="middle" fill="#f472b6" font-size="15" font-family="monospace" font-weight="bold">coding agents</text>

  <circle cx="506.7" cy="20" r="8" fill="#22d3ee" opacity="0.15"></circle>
  <circle cx="506.7" cy="20" r="3.5" fill="#22d3ee"></circle>
  <text x="518.7" y="25" text-anchor="start" fill="rgba(255,255,255,0.88)" font-size="14" font-family="monospace">850 / mo</text>

  <circle cx="920" cy="135.8" r="8" fill="#22d3ee" opacity="0.15"></circle>
  <circle cx="920" cy="135.8" r="3.5" fill="#22d3ee"></circle>

  <text x="0" y="302" text-anchor="start" fill="rgba(255,255,255,0.82)" font-size="17" font-family="monospace">2022</text>
  <text x="76.6" y="302" text-anchor="middle" fill="rgba(255,255,255,0.82)" font-size="17" font-family="monospace">2023</text>
  <text x="153.2" y="302" text-anchor="middle" fill="rgba(255,255,255,0.82)" font-size="17" font-family="monospace">2024</text>
  <text x="229.8" y="302" text-anchor="middle" fill="rgba(255,255,255,0.82)" font-size="17" font-family="monospace">2025</text>
  <text x="300" y="302" text-anchor="middle" fill="rgba(255,255,255,0.82)" font-size="17" font-family="monospace">Dec</text>
  <text x="403.3" y="302" text-anchor="middle" fill="rgba(255,255,255,0.82)" font-size="17" font-family="monospace">Jan</text>
  <text x="506.7" y="302" text-anchor="middle" fill="rgba(255,255,255,0.82)" font-size="17" font-family="monospace">Feb</text>
  <text x="610" y="302" text-anchor="middle" fill="rgba(255,255,255,0.82)" font-size="17" font-family="monospace">Mar</text>
  <text x="713.3" y="302" text-anchor="middle" fill="rgba(255,255,255,0.82)" font-size="17" font-family="monospace">Apr</text>
  <text x="816.7" y="302" text-anchor="middle" fill="rgba(255,255,255,0.82)" font-size="17" font-family="monospace">May</text>
  <text x="920" y="302" text-anchor="middle" fill="rgba(255,255,255,0.82)" font-size="17" font-family="monospace">Jun</text>
  <text x="300" y="324" text-anchor="middle" fill="rgba(255,255,255,0.68)" font-size="13" font-family="monospace">2025</text>
  <text x="403.3" y="324" text-anchor="middle" fill="rgba(255,255,255,0.68)" font-size="13" font-family="monospace">2026</text>
</svg>
